<mxfile host="app.diagrams.net" modified="2024-06-10T12:17:53.041Z" agent="Mozilla/5.0 (Windows NT 10.0; Win64; x64) AppleWebKit/537.36 (KHTML, like Gecko) Chrome/125.0.0.0 Safari/537.36" etag="Bk7pVYj9PL2ubvNH6UoI" version="24.5.2" type="github">
  <diagram name="Page-1" id="iZcKI4B3J8yrRd7xRlpH">
    <mxGraphModel dx="1034" dy="2147" grid="1" gridSize="10" guides="1" tooltips="1" connect="1" arrows="1" fold="1" page="1" pageScale="1" pageWidth="1169" pageHeight="1654" math="0" shadow="0">
      <root>
        <mxCell id="0" />
        <mxCell id="1" parent="0" />
        <mxCell id="jsC2yVKV6_jI0NT67JG1-1" value="Amazon S3" style="sketch=0;outlineConnect=0;fontColor=#232F3E;gradientColor=none;strokeColor=#ffffff;fillColor=#232F3E;dashed=0;verticalLabelPosition=middle;verticalAlign=bottom;align=center;html=1;whiteSpace=wrap;fontSize=10;fontStyle=1;spacing=3;shape=mxgraph.aws4.productIcon;prIcon=mxgraph.aws4.s3;" vertex="1" parent="1">
          <mxGeometry x="585" y="-430" width="80" height="100" as="geometry" />
        </mxCell>
        <mxCell id="jsC2yVKV6_jI0NT67JG1-4" style="edgeStyle=orthogonalEdgeStyle;rounded=0;orthogonalLoop=1;jettySize=auto;html=1;exitX=0.444;exitY=0.005;exitDx=0;exitDy=0;exitPerimeter=0;" edge="1" parent="1" source="jsC2yVKV6_jI0NT67JG1-2">
          <mxGeometry relative="1" as="geometry">
            <mxPoint x="230" y="-490" as="targetPoint" />
            <Array as="points">
              <mxPoint x="121" y="-490" />
            </Array>
          </mxGeometry>
        </mxCell>
        <mxCell id="jsC2yVKV6_jI0NT67JG1-6" style="edgeStyle=orthogonalEdgeStyle;rounded=0;orthogonalLoop=1;jettySize=auto;html=1;entryX=0;entryY=0.5;entryDx=0;entryDy=0;" edge="1" parent="1" source="jsC2yVKV6_jI0NT67JG1-2" target="jsC2yVKV6_jI0NT67JG1-8">
          <mxGeometry relative="1" as="geometry">
            <mxPoint x="127" y="-240" as="targetPoint" />
          </mxGeometry>
        </mxCell>
        <mxCell id="jsC2yVKV6_jI0NT67JG1-2" value="Data warehouse" style="image;aspect=fixed;html=1;points=[];align=center;fontSize=12;image=img/lib/azure2/databases/Azure_Database_PostgreSQL_Server.svg;" vertex="1" parent="1">
          <mxGeometry x="80" y="-470" width="93" height="124" as="geometry" />
        </mxCell>
        <mxCell id="jsC2yVKV6_jI0NT67JG1-7" value="Posted scan-in combined" style="rounded=1;whiteSpace=wrap;html=1;" vertex="1" parent="1">
          <mxGeometry x="230" y="-510" width="120" height="60" as="geometry" />
        </mxCell>
        <mxCell id="jsC2yVKV6_jI0NT67JG1-12" style="edgeStyle=orthogonalEdgeStyle;rounded=0;orthogonalLoop=1;jettySize=auto;html=1;" edge="1" parent="1" source="jsC2yVKV6_jI0NT67JG1-8" target="jsC2yVKV6_jI0NT67JG1-9">
          <mxGeometry relative="1" as="geometry" />
        </mxCell>
        <mxCell id="jsC2yVKV6_jI0NT67JG1-8" value="Posted scan-out combined" style="rounded=1;whiteSpace=wrap;html=1;" vertex="1" parent="1">
          <mxGeometry x="230" y="-320" width="120" height="60" as="geometry" />
        </mxCell>
        <mxCell id="jsC2yVKV6_jI0NT67JG1-9" value="Aws Glue" style="sketch=0;points=[[0,0,0],[0.25,0,0],[0.5,0,0],[0.75,0,0],[1,0,0],[0,1,0],[0.25,1,0],[0.5,1,0],[0.75,1,0],[1,1,0],[0,0.25,0],[0,0.5,0],[0,0.75,0],[1,0.25,0],[1,0.5,0],[1,0.75,0]];outlineConnect=0;fontColor=#232F3E;fillColor=#8C4FFF;strokeColor=#ffffff;dashed=0;verticalLabelPosition=bottom;verticalAlign=top;align=center;html=1;fontSize=12;fontStyle=0;aspect=fixed;shape=mxgraph.aws4.resourceIcon;resIcon=mxgraph.aws4.glue;" vertex="1" parent="1">
          <mxGeometry x="430" y="-320" width="78" height="78" as="geometry" />
        </mxCell>
        <mxCell id="jsC2yVKV6_jI0NT67JG1-10" style="edgeStyle=orthogonalEdgeStyle;rounded=0;orthogonalLoop=1;jettySize=auto;html=1;entryX=0;entryY=0.5;entryDx=0;entryDy=0;entryPerimeter=0;" edge="1" parent="1" source="jsC2yVKV6_jI0NT67JG1-7" target="jsC2yVKV6_jI0NT67JG1-11">
          <mxGeometry relative="1" as="geometry" />
        </mxCell>
        <mxCell id="jsC2yVKV6_jI0NT67JG1-11" value="Aws Glue" style="sketch=0;points=[[0,0,0],[0.25,0,0],[0.5,0,0],[0.75,0,0],[1,0,0],[0,1,0],[0.25,1,0],[0.5,1,0],[0.75,1,0],[1,1,0],[0,0.25,0],[0,0.5,0],[0,0.75,0],[1,0.25,0],[1,0.5,0],[1,0.75,0]];outlineConnect=0;fontColor=#232F3E;fillColor=#8C4FFF;strokeColor=#ffffff;dashed=0;verticalLabelPosition=bottom;verticalAlign=top;align=center;html=1;fontSize=12;fontStyle=0;aspect=fixed;shape=mxgraph.aws4.resourceIcon;resIcon=mxgraph.aws4.glue;" vertex="1" parent="1">
          <mxGeometry x="430" y="-519" width="78" height="78" as="geometry" />
        </mxCell>
      </root>
    </mxGraphModel>
  </diagram>
</mxfile>
